<?xml version="1.0" encoding="UTF-8"?>
<svg id="_图层_1" data-name="图层 1" xmlns="http://www.w3.org/2000/svg" xmlns:xlink="http://www.w3.org/1999/xlink" viewBox="0 0 288.04 93.48">
  <defs>
    <style>
      .cls-1 {
        fill: #fff;
      }

      .cls-2 {
        fill: #cfe8db;
      }

      .cls-3 {
        fill: #e83e54;
      }

      .cls-4 {
        fill: none;
        stroke: #151515;
        stroke-linecap: round;
      }

      .cls-4, .cls-5, .cls-6 {
        stroke-miterlimit: 10;
        stroke-width: 2px;
      }

      .cls-5 {
        fill: url(#_未命名的渐变_65);
        stroke: url(#_未命名的渐变_139);
      }

      .cls-6 {
        fill: #fafafa;
        stroke: #50b98e;
      }

      .cls-7 {
        fill: #141414;
      }

      .cls-8 {
        fill: #272828;
      }
    </style>
    <linearGradient id="_未命名的渐变_65" data-name="未命名的渐变 65" x1="77.71" y1="55.56" x2="287.04" y2="55.56" gradientUnits="userSpaceOnUse">
      <stop offset="0" stop-color="#50b98e"/>
      <stop offset="1" stop-color="#8fcb9e"/>
    </linearGradient>
    <linearGradient id="_未命名的渐变_139" data-name="未命名的渐变 139" x1="76.71" y1="55.56" x2="288.04" y2="55.56" gradientUnits="userSpaceOnUse">
      <stop offset="0" stop-color="#50b98e"/>
      <stop offset="1" stop-color="#abd6a8"/>
    </linearGradient>
  </defs>
  <rect class="cls-5" x="77.71" y="18.67" width="209.33" height="73.78" rx="36.89" ry="36.89"/>
  <g>
    <path class="cls-1" d="m150.76,35.56h6.8l-7.78,36.93h22.47l-1.3,6.34h-29.27l9.09-43.27Z"/>
    <path class="cls-1" d="m180.14,46.74h6.8l.71,26.1h5.42l11.68-26.1h6.91l-13.43,29.67c-.72,1.61-1.9,2.42-3.55,2.42h-10.6c-.85,0-1.52-.24-2.01-.72-.5-.48-.76-1.18-.8-2.1l-1.13-29.27Z"/>
    <path class="cls-1" d="m249.92,38.35c2.01,1.86,2.69,4.68,2.06,8.44l-.34,1.96c-.7,3.65-2.89,6.2-6.55,7.66,3.31,1.27,4.78,3.94,4.43,8.01-.03.35-.12.98-.28,1.9l-.31,1.61c-.83,3.76-2.67,6.52-5.54,8.27-2.86,1.75-6.86,2.62-12.01,2.62-3.15,0-6.72-.23-10.71-.69l1.36-6.34c2.36.27,4.21.45,5.57.55,1.36.1,3.05.14,5.09.14,3.07,0,5.32-.4,6.73-1.21,1.41-.81,2.33-2.11,2.76-3.92l.31-1.61c.06-.23.11-.56.14-.98.15-1.73-.3-2.98-1.34-3.75-1.05-.77-2.8-1.17-5.25-1.21h-7.83l1.29-6.17h7.72c2.19-.04,3.92-.43,5.17-1.18s2.09-1.99,2.51-3.72l.33-1.84.12-.69c.12-1.38-.35-2.45-1.42-3.2-1.07-.75-3.06-1.12-5.98-1.12-3.57,0-7.04.14-10.41.4l1.37-6.45c3.21-.19,6.63-.29,10.28-.29,5.15,0,8.72.93,10.73,2.79Z"/>
  </g>
  <path class="cls-6" d="m116.49,22.4c0-11.73-9.51-21.24-21.24-21.24-7.4,0-13.9,3.79-17.71,9.52-5.82-2.37-12.09-3.67-18.62-3.67h0c-6.61,0-12.96,1.33-18.83,3.76C36.32,4.9,29.74,1,22.24,1,10.51,1,1,10.51,1,22.24c0,7.38,3.77,13.87,9.48,17.68-3.94,8.41-6.18,17.94-6.18,28.04v24.52h109.27v-24.52c0-10.13-2.26-19.69-6.21-28.11,5.52-3.84,9.15-10.22,9.15-17.45Z"/>
  <ellipse class="cls-8" cx="27.83" cy="48.49" rx="4.67" ry="6.27"/>
  <ellipse class="cls-8" cx="93.41" cy="48.49" rx="4.67" ry="6.27"/>
  <path class="cls-7" d="m67.61,58.93c0,3.51-3.36,8.34-8.94,8.34s-8.79-4.83-8.79-8.34,3.21-6.2,8.79-6.2,8.94,2.69,8.94,6.2Z"/>
  <line class="cls-4" x1="58.75" y1="67.95" x2="58.75" y2="70.65"/>
  <path class="cls-2" d="m102.2,31.53c2.5-2.04,4.1-5.15,4.1-8.63,0-6.15-4.99-11.14-11.14-11.14-3.52,0-6.66,1.64-8.7,4.19,6.1,4.02,11.45,9.33,15.75,15.58Z"/>
  <path class="cls-2" d="m15.21,31.61c4.26-6.23,9.57-11.52,15.63-15.55-2.03-2.7-5.26-4.46-8.9-4.46-6.15,0-11.14,4.99-11.14,11.14,0,3.62,1.73,6.83,4.41,8.86Z"/>
  <path class="cls-3" d="m58.75,75.81c2.13,0,3.86-1.73,3.86-3.86h-7.72c0,2.13,1.73,3.86,3.86,3.86Z"/>
  <path class="cls-4" d="m46.17,70.65c3.48,3.48,9.1,3.48,12.57,0"/>
  <path class="cls-4" d="m58.75,70.65c3.48,3.48,9.1,3.48,12.57,0"/>
</svg>