<?xml version="1.0" encoding="UTF-8"?>
<svg id="_图层_1" data-name="图层 1" xmlns="http://www.w3.org/2000/svg" xmlns:xlink="http://www.w3.org/1999/xlink" viewBox="0 0 287.93 128.26">
  <defs>
    <style>
      .cls-1 {
        fill: #fff;
      }

      .cls-2 {
        fill: #272828;
        stroke: #272828;
      }

      .cls-2, .cls-3, .cls-4, .cls-5 {
        stroke-miterlimit: 10;
        stroke-width: 2px;
      }

      .cls-6 {
        fill: #e2dd72;
      }

      .cls-7 {
        fill: url(#_未命名的渐变_19-6);
      }

      .cls-3 {
        fill: #fafafa;
        stroke: #e94644;
      }

      .cls-8 {
        fill: url(#_未命名的渐变_19-10);
      }

      .cls-4 {
        fill: none;
        stroke: #151515;
        stroke-linecap: round;
      }

      .cls-9 {
        fill: url(#_未命名的渐变_19-9);
      }

      .cls-10 {
        fill: url(#_未命名的渐变_48-2);
      }

      .cls-11 {
        fill: url(#_未命名的渐变_19);
      }

      .cls-12 {
        fill: #f9d4d4;
      }

      .cls-13 {
        fill: url(#_未命名的渐变_19-3);
      }

      .cls-14 {
        fill: url(#_未命名的渐变_48);
      }

      .cls-15 {
        fill: #f19bbf;
      }

      .cls-16 {
        fill: url(#_未命名的渐变_34);
      }

      .cls-17 {
        fill: url(#_未命名的渐变_19-5);
      }

      .cls-18 {
        fill: url(#_未命名的渐变_19-12);
      }

      .cls-19 {
        fill: url(#_未命名的渐变_19-4);
      }

      .cls-20 {
        fill: url(#_未命名的渐变_19-11);
      }

      .cls-21 {
        fill: url(#_未命名的渐变_25);
      }

      .cls-22 {
        fill: url(#_未命名的渐变_48-3);
      }

      .cls-23 {
        fill: url(#_未命名的渐变_19-2);
      }

      .cls-24 {
        fill: #141414;
      }

      .cls-25 {
        fill: url(#_未命名的渐变_19-8);
      }

      .cls-5 {
        fill: url(#_未命名的渐变_13);
        stroke: url(#_未命名的渐变_11);
      }

      .cls-26 {
        fill: url(#_未命名的渐变_19-7);
      }
    </style>
    <linearGradient id="_未命名的渐变_13" data-name="未命名的渐变 13" x1="77.6" y1="76.95" x2="286.93" y2="76.95" gradientUnits="userSpaceOnUse">
      <stop offset="0" stop-color="#ea594f"/>
      <stop offset="1" stop-color="#ee795c"/>
    </linearGradient>
    <linearGradient id="_未命名的渐变_11" data-name="未命名的渐变 11" x1="76.6" y1="76.95" x2="287.93" y2="76.95" gradientUnits="userSpaceOnUse">
      <stop offset="0" stop-color="#eb6052"/>
      <stop offset="1" stop-color="#ee7e63"/>
    </linearGradient>
    <linearGradient id="_未命名的渐变_19" data-name="未命名的渐变 19" x1="303.7" y1="107.4" x2="349.51" y2="107.4" gradientTransform="translate(-197.54 -179.95) rotate(18.89)" gradientUnits="userSpaceOnUse">
      <stop offset="0" stop-color="#eb6b9e"/>
      <stop offset="1" stop-color="#e83d67"/>
    </linearGradient>
    <linearGradient id="_未命名的渐变_19-2" data-name="未命名的渐变 19" x1="303.7" y1="111.87" x2="349.51" y2="111.87" xlink:href="#_未命名的渐变_19"/>
    <linearGradient id="_未命名的渐变_19-3" data-name="未命名的渐变 19" x1="303.7" y1="82.73" x2="349.51" y2="82.73" xlink:href="#_未命名的渐变_19"/>
    <linearGradient id="_未命名的渐变_19-4" data-name="未命名的渐变 19" x1="303.7" y1="90.7" x2="349.51" y2="90.7" xlink:href="#_未命名的渐变_19"/>
    <linearGradient id="_未命名的渐变_19-5" data-name="未命名的渐变 19" x1="303.7" y1="98.86" x2="349.51" y2="98.86" xlink:href="#_未命名的渐变_19"/>
    <linearGradient id="_未命名的渐变_19-6" data-name="未命名的渐变 19" x1="303.7" y1="116.3" x2="349.51" y2="116.3" xlink:href="#_未命名的渐变_19"/>
    <linearGradient id="_未命名的渐变_19-7" data-name="未命名的渐变 19" x1="303.7" y1="94.62" x2="349.51" y2="94.62" xlink:href="#_未命名的渐变_19"/>
    <linearGradient id="_未命名的渐变_19-8" data-name="未命名的渐变 19" x1="303.7" y1="105.18" x2="349.51" y2="105.18" xlink:href="#_未命名的渐变_19"/>
    <linearGradient id="_未命名的渐变_19-9" data-name="未命名的渐变 19" x1="303.7" y1="113.58" x2="349.51" y2="113.58" xlink:href="#_未命名的渐变_19"/>
    <linearGradient id="_未命名的渐变_48" data-name="未命名的渐变 48" x1="-500.25" y1="-142.02" x2="-486.04" y2="-142.02" gradientTransform="translate(447.44 212.57) rotate(-7.46) scale(.89 1) skewX(-36.05)" gradientUnits="userSpaceOnUse">
      <stop offset="1" stop-color="#eb699c"/>
      <stop offset="1" stop-color="#ea679a"/>
      <stop offset="1" stop-color="#ea6193"/>
      <stop offset="1" stop-color="#e95787"/>
      <stop offset="1" stop-color="#e84976"/>
      <stop offset="1" stop-color="#e83e69"/>
    </linearGradient>
    <linearGradient id="_未命名的渐变_48-2" data-name="未命名的渐变 48" x1="720.39" y1="1846.57" x2="734.6" y2="1846.57" gradientTransform="translate(485.15 2004.84) rotate(4.66) scale(.88 -1) skewX(-36.05)" xlink:href="#_未命名的渐变_48"/>
    <linearGradient id="_未命名的渐变_19-10" data-name="未命名的渐变 19" x1="5.19" y1="32.51" x2="115.32" y2="32.51" gradientTransform="translate(8.15 59.3) rotate(12.72)" xlink:href="#_未命名的渐变_19"/>
    <linearGradient id="_未命名的渐变_19-11" data-name="未命名的渐变 19" x1="5.2" y1="40.42" x2="115.32" y2="40.42" gradientTransform="translate(8.15 59.3) rotate(12.72)" xlink:href="#_未命名的渐变_19"/>
    <linearGradient id="_未命名的渐变_19-12" data-name="未命名的渐变 19" x1="5.19" y1="36.48" x2="115.32" y2="36.48" gradientTransform="translate(8.15 59.3) rotate(12.72)" xlink:href="#_未命名的渐变_19"/>
    <linearGradient id="_未命名的渐变_25" data-name="未命名的渐变 25" x1="285.66" y1="-44.94" x2="400.61" y2="-44.94" gradientTransform="translate(-283.67 157.14) rotate(-.68)" gradientUnits="userSpaceOnUse">
      <stop offset="0" stop-color="#eb6b9e"/>
      <stop offset="1" stop-color="#f19bbf"/>
      <stop offset="1" stop-color="#e83d67"/>
    </linearGradient>
    <linearGradient id="_未命名的渐变_34" data-name="未命名的渐变 34" x1="372.41" y1="-170.19" x2="2510.08" y2="-170.19" gradientTransform="translate(-293.62 275.68)" gradientUnits="userSpaceOnUse">
      <stop offset="0" stop-color="#e83f69"/>
      <stop offset="1" stop-color="#f19bbf"/>
      <stop offset="1" stop-color="#e83e69"/>
    </linearGradient>
    <linearGradient id="_未命名的渐变_48-3" data-name="未命名的渐变 48" x1="272.94" y1="-76.12" x2="277.38" y2="-76.12" gradientTransform="translate(-183.34 187.6) scale(1 1.08)" xlink:href="#_未命名的渐变_48"/>
  </defs>
  <rect class="cls-5" x="77.6" y="40.06" width="209.33" height="73.78" rx="36.89" ry="36.89"/>
  <g>
    <path class="cls-1" d="m150.65,54.23h6.8l-7.78,36.93h22.47l-1.3,6.34h-29.27l9.09-43.27Z"/>
    <path class="cls-1" d="m180.03,65.4h6.8l.71,26.1h5.42l11.68-26.1h6.91l-13.43,29.67c-.72,1.61-1.9,2.42-3.55,2.42h-10.6c-.85,0-1.52-.24-2.01-.72-.5-.48-.76-1.18-.8-2.1l-1.13-29.27Z"/>
    <path class="cls-1" d="m226.02,77.1v-.06s4.82-22.81,4.82-22.81h22.93l-1.3,6.34h-16.13l-2.17,10.37h4.03c8.95,0,13.14,3.3,12.56,9.91-.06.73-.13,1.27-.2,1.61l-.77,4.15c-.83,3.76-2.67,6.52-5.54,8.27-2.86,1.75-6.88,2.62-12.07,2.62-3.23,0-6.63-.23-10.2-.69l1.36-6.34c1.98.23,3.67.4,5.08.52,1.41.12,3.1.17,5.05.17,3.07,0,5.33-.4,6.76-1.21,1.43-.81,2.34-2.11,2.73-3.92l.61-3c.33-2.07-.01-3.57-1.05-4.49-1.03-.92-2.97-1.4-5.81-1.44h-10.72Z"/>
  </g>
  <path class="cls-3" d="m116.49,41.51c0-11.73-9.51-21.24-21.24-21.24-7.4,0-13.9,3.79-17.71,9.52-5.82-2.37-12.09-3.67-18.62-3.67h0c-6.61,0-12.96,1.33-18.83,3.76-3.78-5.87-10.36-9.77-17.86-9.77C10.51,20.11,1,29.62,1,41.35c0,7.38,3.77,13.87,9.48,17.68-3.94,8.41-6.18,17.94-6.18,28.04v24.52h109.27v-24.52c0-10.13-2.26-19.69-6.21-28.11,5.52-3.84,9.15-10.22,9.15-17.45Z"/>
  <path class="cls-24" d="m71.07,76.69c0,4.3-4.48,10.22-11.92,10.22s-11.72-5.92-11.72-10.22,4.28-7.59,11.72-7.59,11.92,3.3,11.92,7.59Z"/>
  <line class="cls-4" x1="58.93" y1="84.22" x2="58.93" y2="91.92"/>
  <path class="cls-12" d="m102.38,50.18c2.5-2.04,4.1-5.15,4.1-8.63,0-6.15-4.99-11.14-11.14-11.14-3.52,0-6.66,1.64-8.7,4.19,6.1,4.02,11.45,9.33,15.75,15.58Z"/>
  <path class="cls-12" d="m15.39,50.25c4.26-6.23,9.57-11.52,15.63-15.55-2.03-2.7-5.26-4.46-8.9-4.46-6.15,0-11.14,4.99-11.14,11.14,0,3.62,1.73,6.83,4.41,8.86Z"/>
  <g>
    <rect class="cls-2" x="83.59" y="61.61" width="11.28" height="2" rx="1" ry="1" transform="translate(196.57 81.64) rotate(155)"/>
    <rect class="cls-2" x="83.6" y="65.56" width="11.28" height="2" rx="1" ry="1" transform="translate(36.78 -31.63) rotate(25.17)"/>
  </g>
  <g>
    <g>
      <polygon class="cls-11" points="95.75 33.46 95.64 32.91 89.47 32.74 95.75 33.46"/>
      <path class="cls-23" d="m53.61,24.68c-.13.2-.24.41-.34.63l7.66.21-7.32-.84Z"/>
      <path class="cls-13" d="m90.2,5.21c-.96-4.87-6.82-6.88-10.56-3.61l-4.02,3.5,14.64.41-.06-.3Z"/>
      <polygon class="cls-19" points="91.85 13.58 91.53 11.96 73.4 11.46 91.85 13.58"/>
      <polygon class="cls-17" points="93.77 23.35 93.56 22.32 82.02 22 93.77 23.35"/>
      <path class="cls-7" d="m88.13,44.83c4.03,1.38,8.04-1.43,8.49-5.33l-36.21-4.16,27.72,9.48Z"/>
      <polygon class="cls-26" points="91.85 13.58 73.4 11.46 68.49 11.32 64.18 15.09 92.3 15.86 91.85 13.58"/>
      <path class="cls-25" d="m94.38,26.45l-.61-3.1-11.75-1.35-24.97-.69-2.19,1.91c-.5.44-.92.93-1.25,1.46l7.32.84,33.44.93Z"/>
      <path class="cls-9" d="m53.79,31.75c.74,1.08,1.83,1.95,3.22,2.43l3.4,1.16,36.21,4.16c.08-.65.05-1.32-.08-2.02l-.79-4.03-6.28-.72-35.69-.99Z"/>
      <polygon class="cls-15" points="73.4 11.46 91.53 11.96 90.26 5.5 75.63 5.1 68.93 10.95 73.4 11.46"/>
      <polygon class="cls-15" points="68.93 10.95 68.49 11.32 73.4 11.46 68.93 10.95"/>
      <polygon class="cls-15" points="62.91 16.2 59.25 19.39 82.02 22 93.56 22.32 93.04 19.66 62.91 16.2"/>
      <polygon class="cls-15" points="93.04 19.66 92.3 15.86 64.18 15.09 62.91 16.2 93.04 19.66"/>
      <polygon class="cls-15" points="59.25 19.39 57.05 21.31 82.02 22 59.25 19.39"/>
      <path class="cls-15" d="m51.66,30.8c-.01.49.37.9.86.91l1.26.03c-.66-.96-1.04-2.09-1.12-3.24-.07-1.08.12-2.18.6-3.2l-.56-.02c-.49-.01-.9.37-.91.86"/>
      <path class="cls-15" d="m60.93,25.52l-7.66-.21c-.48,1.01-.68,2.12-.6,3.2l36.81,4.23,6.17.17-.68-3.48-34.03-3.91Z"/>
      <polygon class="cls-15" points="94.96 29.43 94.38 26.45 60.93 25.52 94.96 29.43"/>
      <path class="cls-15" d="m52.66,28.51c.08,1.15.46,2.28,1.12,3.24l35.69.99-36.81-4.23Z"/>
    </g>
    <rect class="cls-6" x="43.59" y="31.89" width="60.22" height="9.59" rx="4.8" ry="4.8" transform="translate(15.85 -21.88) rotate(18.89)"/>
  </g>
  <g>
    <path class="cls-14" d="m87.22,123.92l-6.06.8c-1.14.15-1.87-.82-1.62-2.16l1.9-10.29c.25-1.34,1.38-2.55,2.52-2.7l6.06-.8c1.14-.15,1.87.82,1.62,2.16l-1.9,10.29c-.25,1.34-1.38,2.55-2.52,2.7Z"/>
    <path class="cls-10" d="m98.7,113.26l-6-.49c-1.12-.09-1.8.91-1.49,2.24l2.35,10.18c.3,1.32,1.47,2.48,2.6,2.57l6,.49c1.12.09,1.8-.91,1.49-2.24l-2.35-10.18c-.3-1.32-1.47-2.48-2.6-2.57Z"/>
    <g>
      <path class="cls-8" d="m108.64,99.82l-99.67,1.18c-3.35.04-6.07,2.76-6.17,6.09l112.15-1.33c-.17-3.33-2.96-5.98-6.31-5.94Z"/>
      <path class="cls-20" d="m9.15,116.44l99.67-1.18c3.34-.04,6.05-2.74,6.17-6.05l-112.15,1.33c.19,3.31,2.97,5.94,6.31,5.9Z"/>
      <path class="cls-18" d="m114.96,106.01c0-.09,0-.17,0-.26l-112.15,1.33c0,.08,0,.17,0,.26l.03,2.9c0,.1,0,.2.01.29l112.15-1.33c0-.1,0-.19,0-.29l-.03-2.9Z"/>
      <path class="cls-21" d="m114.96,106.01c0-.09,0-.17,0-.26l-112.15,1.33c0,.08,0,.17,0,.26l.03,2.9c0,.1,0,.2.01.29l112.15-1.33c0-.1,0-.19,0-.29l-.03-2.9Z"/>
    </g>
    <rect class="cls-16" x="78.8" y="94.78" width="25.61" height="21.48" rx="10.74" ry="10.74" transform="translate(-1.35 1.19) rotate(-.74)"/>
    <rect class="cls-22" x="89.6" y="94.77" width="4.84" height="21.47" transform="translate(-1.35 1.19) rotate(-.74)"/>
  </g>
  <g>
    <rect class="cls-2" x="24.07" y="62.87" width="11.28" height="2" rx="1" ry="1" transform="translate(29.78 -6.57) rotate(25)"/>
    <rect class="cls-2" x="24.07" y="66.82" width="11.28" height="2" rx="1" ry="1" transform="translate(85.44 116.57) rotate(154.83)"/>
  </g>
</svg>