<?xml version="1.0" standalone="no"?><!DOCTYPE svg PUBLIC "-//W3C//DTD SVG 1.1//EN" "http://www.w3.org/Graphics/SVG/1.1/DTD/svg11.dtd"><svg t="1657599311396" class="icon" viewBox="0 0 1024 1024" version="1.1" xmlns="http://www.w3.org/2000/svg" p-id="15061" xmlns:xlink="http://www.w3.org/1999/xlink" width="200" height="200"><defs><style type="text/css">@font-face { font-family: feedback-iconfont; src: url("//at.alicdn.com/t/font_1031158_u69w8yhxdu.woff2?t=1630033759944") format("woff2"), url("//at.alicdn.com/t/font_1031158_u69w8yhxdu.woff?t=1630033759944") format("woff"), url("//at.alicdn.com/t/font_1031158_u69w8yhxdu.ttf?t=1630033759944") format("truetype"); }
</style></defs><path d="M733.44 852.053333H296.96a128 128 0 0 1-128-128V394.453333a42.666667 42.666667 0 0 1 64-36.48l120.746667 72.746667 128-135.893333a40.96 40.96 0 0 1 30.293333-13.653334 42.666667 42.666667 0 0 1 31.146667 14.08l121.6 134.826667 118.186666-72.106667a42.666667 42.666667 0 0 1 64 36.48v257.92a42.666667 42.666667 0 0 1-85.333333 0v-181.973333l-83.413333 50.986667a42.666667 42.666667 0 0 1-53.973334-7.893334L512 386.986667l-119.466667 128a42.666667 42.666667 0 0 1-53.12 7.253333l-85.333333-51.626667V723.2a42.666667 42.666667 0 0 0 42.666667 42.666667h436.693333a42.666667 42.666667 0 0 1 0 85.333333z" fill="#ffffff" p-id="15062"></path><path d="M238.350013 271.283503m-30.169889 30.16989a42.666667 42.666667 0 1 0 60.339778-60.339779 42.666667 42.666667 0 1 0-60.339778 60.339779Z" fill="#ffffff" p-id="15063"></path><path d="M511.913151 192.728994m-30.16989 30.169889a42.666667 42.666667 0 1 0 60.339779-60.339779 42.666667 42.666667 0 1 0-60.339779 60.339779Z" fill="#ffffff" p-id="15064"></path><path d="M778.747268 271.255922m-30.16989 30.169889a42.666667 42.666667 0 1 0 60.339779-60.339779 42.666667 42.666667 0 1 0-60.339779 60.339779Z" fill="#ffffff" p-id="15065"></path><path d="M516.053333 730.88a32 32 0 0 1-25.386666-13.226667L418.346667 618.666667A32 32 0 0 1 469.333333 581.12l44.16 61.013333 38.186667-59.52a32 32 0 1 1 53.76 34.56l-64 98.986667a32 32 0 0 1-26.026667 14.72z" fill="#ffffff" p-id="15066"></path></svg>