<?xml version="1.0" encoding="utf-8"?>
<!-- Generator: Adobe Illustrator 25.0.0, SVG Export Plug-In . SVG Version: 6.00 Build 0)  -->
<svg version="1.1" id="图层_1" xmlns="http://www.w3.org/2000/svg" xmlns:xlink="http://www.w3.org/1999/xlink" x="0px" y="0px"
	 viewBox="0 0 65.2 19.8" style="enable-background:new 0 0 65.2 19.8;" xml:space="preserve">
<style type="text/css">
	.st0{fill:#FF6161;}
	.st1{fill:#FFFFFF;}
	.st2{font-family:'SimHei';}
	.st3{font-size:12px;}
	.st4{fill:#FF7D7D;}
</style>
<path id="路径" class="st0" d="M9.4,0.6C4.3,0.5,0,4.6,0,9.9c0.1,5.2,4.2,9.4,9.4,9.3c5.2,0,9.3-4.1,9.3-9.3
	C18.7,4.6,14.4,0.6,9.4,0.6z"/>
<g>
	<path class="st0" d="M58.2,1.5H31.7l0,0H18c2.1,2.2,3.4,5.2,3.4,8.7c0,3.1-1.2,6-3.1,8.2h40c2.1,0,3.7-1.7,3.7-3.7V5.2
		C62,3.1,60.3,1.5,58.2,1.5z"/>
</g>
<text transform="matrix(1 0 0 1 24.4442 13.9996)" class="st1 st2 st3">星推官</text>
<path class="st1" d="M15.4,8.4c-0.2-0.6-0.7-1.1-1.4-1.2l-2.1-0.3l-1-2c-0.3-0.6-0.9-1-1.5-1c-0.7,0-1.3,0.4-1.5,1l-1,2L4.7,7.2
	C4.1,7.3,3.5,7.7,3.3,8.4C3.1,9,3.3,9.7,3.7,10.1l1.6,1.6L4.9,14c-0.1,0.5,0.1,1,0.4,1.4c0.3,0.4,0.8,0.6,1.3,0.6
	c0.3,0,0.6-0.1,0.8-0.2l1.9-1l1.9,1c0.3,0.1,0.5,0.2,0.8,0.2c0.5,0,1-0.2,1.3-0.6c0.3-0.4,0.5-0.9,0.4-1.4l-0.4-2.3l1.6-1.6
	C15.4,9.7,15.6,9,15.4,8.4L15.4,8.4z M14.2,9.4l-1.7,1.7c-0.1,0.2-0.2,0.4-0.2,0.6l0.4,2.5c0.1,0.6-0.5,1-1,0.8l-2.1-1.2
	c-0.2-0.1-0.4-0.1-0.6,0L6.9,15c-0.5,0.3-1.1-0.2-1-0.8l0.4-2.5c0-0.2,0-0.4-0.2-0.6L4.5,9.4C4,9,4.3,8.3,4.8,8.2l2.4-0.4
	c0.2,0,0.4-0.2,0.5-0.4l1.1-2.2c0.3-0.5,1-0.5,1.2,0L11,7.5c0.1,0.2,0.3,0.3,0.5,0.4l2.4,0.4C14.4,8.3,14.7,9,14.2,9.4L14.2,9.4z"/>
<path class="st4" d="M14.2,9.4c0.4-0.4,0.2-1.1-0.4-1.2L12.4,8v1.5c0,2.2-1.8,4.1-4.1,4.1H6.1l-0.1,0.7c-0.1,0.6,0.5,1,1,0.8
	l2.1-1.2c0.2-0.1,0.4-0.1,0.6,0l2.1,1.2c0.5,0.3,1.1-0.2,1-0.8l-0.4-2.5c0-0.2,0-0.4,0.2-0.6L14.2,9.4L14.2,9.4z"/>
<path class="st1" d="M9.3,12.5c-0.7,0-1.4-0.4-1.6-1.1c-0.1-0.3,0-0.6,0.3-0.7c0.3-0.1,0.6,0,0.7,0.3c0.1,0.3,0.4,0.5,0.7,0.5
	c0.3,0,0.6-0.2,0.7-0.5c0.1-0.3,0.4-0.4,0.7-0.3c0.3,0.1,0.4,0.4,0.3,0.7C10.7,12.1,10.1,12.5,9.3,12.5z"/>
</svg>
